# Blender v2.61 (sub 0) OBJ File: ''
# www.blender.org
g body
v 0.000000 0.200000 1.310335
v 0.317800 0.200000 1.290335
v 0.000000 0.060000 1.270335
v 0.480000 0.200000 0.441200
v 0.480000 0.200000 -0.421000
v 0.400000 0.060000 0.441200
v 0.400000 0.060000 -0.421000
v 0.317800 0.200000 -0.710335
v 0.000000 0.200000 -0.710335
v 0.317800 0.060000 -0.650335
v 0.000000 0.060000 -0.650335
v 0.000000 0.899999 -0.005000
v 0.480000 0.200000 0.822201
v 0.400000 0.060000 0.822201
v 0.000000 0.320000 1.330335
v 0.317800 0.320000 1.310335
v 0.500000 0.320000 0.441200
v 0.500000 0.320000 -0.421000
v 0.317800 0.320000 -0.710335
v 0.000000 0.320000 -0.710335
v 0.500000 0.320000 0.822201
v 0.000000 0.390000 1.330335
v 0.317800 0.390000 1.310335
v 0.500000 0.380000 0.441200
v 0.500000 0.380000 -0.421000
v 0.317800 0.380000 -0.710335
v 0.000000 0.380000 -0.710335
v 0.500000 0.380000 0.822201
v 0.467454 0.515575 0.010000
v 0.467454 0.515576 0.441200
v 0.466882 0.515575 -0.421000
v 0.482828 0.480200 0.441200
v 0.482256 0.480200 -0.421000
v 0.466442 0.481455 -0.655665
v 0.445472 0.481455 -0.678257
v 0.317800 0.479999 -0.709023
v 0.000000 0.479999 -0.710335
v 0.000000 0.514333 -0.696387
v 0.317800 0.514333 -0.695075
v 0.451252 0.513093 -0.638935
v 0.430280 0.513093 -0.661527
v 0.317800 0.423110 1.290579
v 0.000000 0.423110 1.310579
v 0.426500 0.413706 1.265375
v 0.000000 0.899999 -0.401000
v 0.297800 0.899999 -0.401000
v 0.297800 0.899999 0.421200
v 0.000000 0.899999 0.421200
v 0.000000 0.879999 0.459599
v 0.324800 0.879999 -0.005000
v 0.000000 0.879999 -0.434950
v 0.482976 0.479164 0.802229
v 0.457234 0.496500 0.841697
v 0.480980 0.475808 0.841625
v 0.459540 0.512622 0.800043
v 0.321300 0.879999 0.449576
v 0.468384 0.200000 -0.697651
v 0.397156 0.060000 -0.645701
v 0.488038 0.320000 -0.700335
v 0.497556 0.380000 -0.686355
v 0.476018 0.380000 -0.707993
v 0.399586 0.200494 1.277561
v 0.323786 0.060000 1.246971
v 0.354172 0.060000 1.215203
v 0.424472 0.200494 1.251419
v 0.419224 0.320378 1.295091
v 0.443984 0.320378 1.269303
v 0.443544 0.379454 1.268981
v 0.414104 0.389888 1.290581
v 0.317766 0.496800 0.841999
v 0.000000 0.496890 0.841957
v 0.317800 0.514600 0.808599
v 0.000000 0.514570 0.808499
v 0.319962 0.879999 -0.428104
v 0.480000 0.200000 -0.005000
v 0.400000 0.060000 -0.005000
v 0.500000 0.320000 -0.005000
v 0.500000 0.380000 -0.005000
v 0.467280 0.515575 -0.020000
v 0.482654 0.480200 -0.020000
v 0.482828 0.480200 0.010000
v 0.297800 0.899999 -0.005000
v -0.317800 0.200000 1.290335
v -0.323786 0.060000 1.246971
v -0.480000 0.200000 0.441200
v -0.480000 0.200000 -0.421000
v -0.400000 0.060000 0.441200
v -0.400000 0.060000 -0.421000
v -0.317800 0.200000 -0.710335
v -0.317800 0.060000 -0.650335
v -0.480000 0.200000 0.822201
v -0.400000 0.060000 0.822201
v -0.317800 0.320000 1.310335
v -0.500000 0.320000 0.441200
v -0.500000 0.320000 -0.421000
v -0.317800 0.320000 -0.710335
v -0.500000 0.320000 0.822201
v -0.500000 0.380000 0.441200
v -0.500000 0.380000 -0.421000
v -0.317800 0.380000 -0.710335
v -0.500000 0.380000 0.822201
v -0.467454 0.515576 0.441200
v -0.466882 0.515575 -0.421000
v -0.482828 0.480200 0.441200
v -0.482828 0.480200 0.010000
v -0.482256 0.480200 -0.421000
v -0.466442 0.481455 -0.655665
v -0.445472 0.481455 -0.678257
v -0.317800 0.479999 -0.709023
v -0.317800 0.514333 -0.695075
v -0.451252 0.513093 -0.638935
v -0.430280 0.513093 -0.661527
v -0.317800 0.423110 1.290579
v -0.426500 0.413706 1.265375
v -0.317800 0.390000 1.310335
v -0.297800 0.899999 -0.401000
v -0.297800 0.899999 -0.005000
v -0.297800 0.899999 0.421200
v -0.482976 0.479164 0.802229
v -0.457234 0.496500 0.841697
v -0.480980 0.475808 0.841625
v -0.459540 0.512622 0.800043
v -0.321300 0.879999 0.449576
v -0.468384 0.200000 -0.697651
v -0.397156 0.060000 -0.645701
v -0.488038 0.320000 -0.700335
v -0.497556 0.380000 -0.686355
v -0.476018 0.380000 -0.707993
v -0.399586 0.200494 1.277561
v -0.354172 0.060000 1.215203
v -0.424472 0.200494 1.251419
v -0.419224 0.320378 1.295091
v -0.443984 0.320378 1.269303
v -0.443544 0.379454 1.268981
v -0.414104 0.389888 1.290581
v -0.317766 0.496800 0.841999
v -0.317800 0.514600 0.808599
v -0.319962 0.879999 -0.428104
v -0.500000 0.320000 -0.020000
v -0.500000 0.380000 -0.020000
v -0.467280 0.515575 -0.020000
v -0.482654 0.480200 -0.020000
v -0.324800 0.879999 -0.020000
v -0.480000 0.200000 -0.005000
v -0.400000 0.060000 -0.005000
v -0.500000 0.320000 0.010000
v -0.500000 0.380000 0.010000
v -0.467454 0.515575 0.010000
v -0.324800 0.879999 0.010000
vt 0.072900 0.913520
vt 0.073600 0.909990
vt 0.074350 0.913640
vt 0.073510 0.913520
vt 0.074970 0.913640
vt 0.074240 0.909990
vt 0.055950 0.903360
vt 0.057950 0.898200
vt 0.056480 0.903360
vt 0.057420 0.898200
vt 0.130150 0.903360
vt 0.128140 0.898200
vt 0.130350 0.903360
vt 0.127940 0.898200
vt 0.073610 0.903360
vt 0.087690 0.898200
vt 0.087640 0.903360
vt 0.073660 0.898200
vt 0.055740 0.907780
vt 0.055210 0.907780
vt 0.130350 0.907780
vt 0.130150 0.907780
vt 0.087630 0.907780
vt 0.073600 0.907780
vt 0.127430 0.914890
vt 0.119390 0.913680
vt 0.128040 0.913720
vt 0.119400 0.914980
vt 0.128280 0.914890
vt 0.128880 0.913720
vt 0.130100 0.913670
vt 0.129580 0.914940
vt 0.130150 0.909990
vt 0.130350 0.913670
vt 0.130350 0.909990
vt 0.129840 0.914940
vt 0.055210 0.910720
vt 0.056470 0.911580
vt 0.055940 0.911580
vt 0.055740 0.910720
vt 0.087640 0.913680
vt 0.087630 0.909990
vt 0.087270 0.928400
vt 0.088490 0.929140
vt 0.088690 0.929140
vt 0.087070 0.928400
vt 0.074800 0.914890
vt 0.087650 0.914980
vt 0.119390 0.903360
vt 0.127340 0.898200
vt 0.129210 0.903360
vt 0.119440 0.898200
vt 0.128090 0.898200
vt 0.129960 0.903360
vt 0.119380 0.907780
vt 0.129300 0.907780
vt 0.130040 0.907780
vt 0.119380 0.909990
vt 0.129150 0.909990
vt 0.129960 0.909990
vt 0.072910 0.914280
vt 0.074080 0.914860
vt 0.058190 0.898200
vt 0.056900 0.903380
vt 0.059220 0.898200
vt 0.057840 0.903380
vt 0.056240 0.907790
vt 0.057170 0.907790
vt 0.056560 0.910740
vt 0.057140 0.911580
vt 0.057510 0.910880
vt 0.057180 0.909970
vt 0.073190 0.914290
vt 0.072990 0.914290
vt 0.074220 0.914950
vt 0.074420 0.914940
vt 0.118770 0.929140
vt 0.120210 0.928400
vt 0.118960 0.929140
vt 0.120150 0.928400
vt 0.104620 0.903360
vt 0.104680 0.898200
vt 0.104610 0.907780
vt 0.104630 0.914980
vt 0.104620 0.913680
vt 0.103890 0.913680
vt 0.103900 0.914980
vt 0.104610 0.909990
vt 0.103870 0.909990
vt 0.104740 0.929140
vt 0.104930 0.929140
vt 0.119350 0.928400
vt 0.104720 0.928400
vt 0.103150 0.903360
vt 0.103200 0.898200
vt 0.103140 0.907780
vt 0.103160 0.914980
vt 0.103150 0.913680
vt 0.103140 0.909990
vt 0.103270 0.929140
vt 0.103460 0.929140
vt 0.087800 0.928400
vt 0.103250 0.928400
vt 0.058360 0.898200
vt 0.056890 0.903360
vt 0.130560 0.903360
vt 0.128350 0.898200
vt 0.074230 0.903360
vt 0.088210 0.898200
vt 0.074180 0.898200
vt 0.088260 0.903360
vt 0.056150 0.907780
vt 0.130560 0.907780
vt 0.088270 0.907780
vt 0.074240 0.907780
vt 0.128010 0.914890
vt 0.120010 0.913680
vt 0.120000 0.914980
vt 0.128640 0.913720
vt 0.128830 0.914890
vt 0.129460 0.913720
vt 0.130510 0.913670
vt 0.129990 0.914940
vt 0.130560 0.909990
vt 0.056880 0.911580
vt 0.056150 0.910720
vt 0.088260 0.913680
vt 0.088270 0.909990
vt 0.088880 0.929140
vt 0.087480 0.928400
vt 0.075410 0.914890
vt 0.088250 0.914980
vt 0.120010 0.903360
vt 0.127870 0.898200
vt 0.119950 0.898200
vt 0.129820 0.903360
vt 0.128590 0.898200
vt 0.130550 0.903360
vt 0.120020 0.907780
vt 0.129930 0.907780
vt 0.130660 0.907780
vt 0.120020 0.909990
vt 0.129790 0.909990
vt 0.130570 0.909990
vt 0.073500 0.914280
vt 0.074660 0.914860
vt 0.057410 0.903380
vt 0.058620 0.898200
vt 0.059680 0.898200
vt 0.058390 0.903380
vt 0.056780 0.907790
vt 0.057740 0.907790
vt 0.057090 0.910740
vt 0.057680 0.911580
vt 0.057750 0.909970
vt 0.058070 0.910880
vt 0.073400 0.914290
vt 0.074630 0.914950
vt 0.119150 0.929140
vt 0.120560 0.928400
vt 0.105240 0.903360
vt 0.105190 0.898200
vt 0.104520 0.907780
vt 0.105250 0.907780
vt 0.105230 0.914980
vt 0.105240 0.913680
vt 0.104510 0.913680
vt 0.104500 0.914980
vt 0.105250 0.909990
vt 0.104520 0.909990
vt 0.105120 0.929140
vt 0.119770 0.928400
vt 0.105140 0.928400
vt 0.104400 0.928400
vt 0.103770 0.903360
vt 0.103720 0.898200
vt 0.103780 0.907780
vt 0.103760 0.914980
vt 0.103770 0.913680
vt 0.103780 0.909990
vt 0.103650 0.929140
vt 0.088220 0.928400
vt 0.103670 0.928400
vt 0.457450 0.472110
vt 0.455940 0.475970
vt 0.457470 0.472080
vt 0.457260 0.472080
vt 0.455870 0.475970
vt 0.455870 0.472100
vt 0.457280 0.472080
vt 0.457440 0.472110
vt 0.455840 0.475970
vt 0.457060 0.472080
vt 0.447560 0.472110
vt 0.447540 0.472080
vt 0.449060 0.475970
vt 0.447740 0.472080
vt 0.449140 0.472100
vt 0.449140 0.475970
vt 0.447730 0.472080
vt 0.447950 0.472080
vt 0.449170 0.475970
vt 0.452500 0.475970
vt 0.452500 0.472100
vt 0.350340 0.793710
vt 0.372610 0.789510
vt 0.372610 0.793710
vt 0.350340 0.789510
vt 0.385380 0.793710
vt 0.385380 0.789510
vt 0.385210 0.793710
vt 0.385240 0.789510
vt 0.383700 0.793710
vt 0.383840 0.789510
vt 0.379690 0.793670
vt 0.379720 0.789530
vt 0.381460 0.789530
vt 0.381420 0.793670
vt 0.328070 0.789510
vt 0.328070 0.793710
vt 0.315300 0.793710
vt 0.315300 0.789510
vt 0.315470 0.793710
vt 0.315440 0.789510
vt 0.316980 0.793710
vt 0.316840 0.789510
vt 0.320990 0.793670
vt 0.320960 0.789530
vt 0.319230 0.789530
vt 0.319260 0.793670
vn 0.862545 0.487594 0.134983
vn 0.993744 0.088412 0.067782
vn 0.909055 0.410901 0.068941
vn -0.862545 0.487594 0.134983
vn -0.909055 0.410901 0.068941
vn -0.993744 0.088412 0.067782
vn 0.000000 -0.221961 0.975036
vn 0.326273 -0.385418 0.863124
vn 0.105747 -0.227027 0.968108
vn 0.000000 -0.274697 0.961516
vn 0.039155 -0.197821 -0.979430
vn 0.000000 -0.393902 -0.919126
vn 0.000000 -0.201056 -0.979553
vn 0.026978 -0.393750 -0.918790
vn 0.941740 -0.331187 0.058412
vn 0.868221 -0.496109 0.000000
vn 0.942015 -0.335490 0.000000
vn 0.867092 -0.495468 0.051332
vn 0.114017 -0.075228 0.990600
vn 0.000000 -0.082186 0.996612
vn 0.000000 0.000000 -1.000000
vn 0.024506 -0.010071 -0.999634
vn 0.996582 -0.082461 0.000000
vn 0.994598 -0.082492 0.062960
vn 0.787011 0.518509 -0.334208
vn 0.956694 0.289010 -0.034150
vn 0.828486 0.444258 -0.340861
vn 0.921873 0.385784 -0.035463
vn 0.414106 0.564074 -0.714347
vn 0.410962 0.435987 -0.800623
vn 0.125736 0.201697 -0.971313
vn 0.130528 0.478164 -0.868496
vn 0.040101 0.035890 -0.998535
vn 0.000000 0.192877 -0.981201
vn 0.000000 0.484787 -0.874599
vn 0.000000 0.263070 0.964751
vn 0.099857 0.822840 0.559404
vn 0.000000 0.820582 0.571520
vn 0.126469 0.261086 0.956969
vn 0.957183 0.289346 0.005524
vn 0.996399 0.084750 0.000000
vn 0.000000 0.797967 0.602649
vn 0.279794 0.934294 0.220801
vn 0.000000 0.971313 0.237770
vn 0.558977 0.733573 0.386425
vn 0.567492 0.753288 0.332316
vn 0.923063 0.384381 0.012665
vn 0.943327 -0.331431 -0.015900
vn 0.578478 -0.540086 -0.611255
vn 0.671896 -0.306864 -0.674032
vn 0.868221 -0.496109 -0.005493
vn 0.996063 -0.087466 -0.013886
vn 0.714957 -0.132694 -0.686422
vn 0.995270 0.095676 -0.015107
vn 0.916105 0.152593 -0.370678
vn 0.381787 0.162328 -0.909848
vn 0.381603 0.889920 0.249794
vn 0.456801 -0.305460 0.835444
vn 0.786431 -0.493515 0.371380
vn 0.851192 -0.341624 0.398389
vn 0.468673 -0.054476 0.881680
vn 0.891232 -0.081423 0.446150
vn 0.393048 0.324686 0.860256
vn 0.537889 0.738273 0.406873
vn 0.859462 0.204596 0.468429
vn 0.000000 0.948180 0.317728
vn 0.013947 0.946989 0.320902
vn 0.025575 0.800439 0.598834
vn 0.000000 0.797662 0.603046
vn 0.289926 0.928678 -0.231239
vn 0.000000 0.733879 -0.679220
vn 0.000000 0.964782 -0.263039
vn 0.552690 0.699393 -0.453139
vn 0.923856 0.382672 -0.004395
vn 0.958037 0.286599 -0.002899
vn 0.958220 0.285897 -0.002625
vn 0.924314 0.381573 -0.002625
vn 0.996338 0.085177 -0.000244
vn 0.315104 0.949034 -0.000549
vn 0.000000 1.000000 0.000000
vn 0.794183 0.607624 -0.002472
vn -0.326273 -0.385418 0.863124
vn -0.105747 -0.227027 0.968108
vn -0.039155 -0.197821 -0.979430
vn -0.026978 -0.393750 -0.918790
vn -0.941740 -0.331187 0.058412
vn -0.868221 -0.496109 0.000000
vn -0.867092 -0.495468 0.051332
vn -0.942015 -0.335490 0.000000
vn -0.114017 -0.075228 0.990600
vn -0.024506 -0.010071 -0.999634
vn -0.996582 -0.082461 0.000000
vn -0.994598 -0.082492 0.062960
vn -0.787011 0.518509 -0.334208
vn -0.956694 0.289010 -0.034150
vn -0.921873 0.385784 -0.035463
vn -0.828486 0.444258 -0.340861
vn -0.414106 0.564074 -0.714347
vn -0.410962 0.435987 -0.800623
vn -0.125736 0.201697 -0.971313
vn -0.130528 0.478164 -0.868496
vn -0.040101 0.035890 -0.998535
vn -0.099857 0.822840 0.559404
vn -0.126469 0.261086 0.956969
vn -0.957183 0.289346 0.005524
vn -0.996399 0.084750 0.000000
vn -0.279794 0.934294 0.220801
vn -0.558946 0.733604 0.386486
vn -0.567492 0.753288 0.332316
vn -0.923063 0.384381 0.012665
vn -0.943327 -0.331431 -0.015900
vn -0.578478 -0.540086 -0.611255
vn -0.868221 -0.496109 -0.005493
vn -0.671896 -0.306864 -0.674032
vn -0.996063 -0.087466 -0.013886
vn -0.714957 -0.132694 -0.686422
vn -0.995270 0.095676 -0.015107
vn -0.916105 0.152593 -0.370678
vn -0.381787 0.162328 -0.909848
vn -0.381603 0.889920 0.249794
vn -0.456801 -0.305460 0.835444
vn -0.786431 -0.493515 0.371380
vn -0.851192 -0.341624 0.398389
vn -0.468673 -0.054476 0.881680
vn -0.891232 -0.081423 0.446150
vn -0.393048 0.324686 0.860256
vn -0.537889 0.738273 0.406873
vn -0.859462 0.204596 0.468429
vn -0.013947 0.946989 0.320902
vn -0.025575 0.800439 0.598834
vn -0.289926 0.928678 -0.231239
vn -0.552660 0.699362 -0.453200
vn -0.923887 0.382580 -0.004425
vn -0.958068 0.286477 -0.002777
vn -0.958281 0.285714 -0.002777
vn -0.924345 0.381512 -0.002594
vn -0.996307 0.085574 0.000000
vn -0.996368 0.085086 -0.000244
vn -0.314249 0.949309 -0.000397
vn -0.793970 0.607898 -0.005249
vn -0.793420 0.608661 0.002441
s 1
f 54/1/1 28/2/2 52/3/3
f 121/4/4 119/5/5 101/6/6
f 1/7/7 63/8/8 2/9/9
f 63/8/8 1/7/7 3/10/10
f 8/11/11 11/12/12 9/13/13
f 10/14/14 11/12/12 8/11/11
f 13/15/15 6/16/16 4/17/17
f 14/18/18 6/16/16 13/15/15
f 16/19/19 1/7/7 2/9/9
f 15/20/20 1/7/7 16/19/19
f 20/21/21 8/11/11 9/13/13
f 19/22/22 8/11/11 20/21/21
f 17/23/23 13/15/15 4/17/17
f 21/24/24 13/15/15 17/23/23
f 40/25/25 33/26/26 34/27/27
f 31/28/28 33/26/26 40/25/25
f 41/29/29 34/27/27 35/30/30
f 40/25/25 34/27/27 41/29/29
f 36/31/31 41/29/29 35/30/30
f 39/32/32 41/29/29 36/31/31
f 26/33/33 37/34/34 36/31/31
f 27/35/21 37/34/34 26/33/33
f 38/36/35 36/31/31 37/34/34
f 39/32/32 36/31/31 38/36/35
f 22/37/36 42/38/37 43/39/38
f 23/40/39 42/38/37 22/37/36
f 28/2/2 32/41/40 52/3/3
f 24/42/41 32/41/40 28/2/2
f 49/43/42 47/44/43 48/45/44
f 56/46/45 47/44/43 49/43/42
f 32/41/40 55/47/46 52/3/3
f 30/48/47 55/47/46 32/41/40
f 5/49/48 58/50/49 57/51/50
f 7/52/51 58/50/49 5/49/48
f 8/11/11 58/53/49 10/14/14
f 57/54/50 58/53/49 8/11/11
f 57/51/50 18/55/52 5/49/48
f 59/56/53 18/55/52 57/51/50
f 19/22/22 57/54/50 8/11/11
f 59/57/53 57/54/50 19/22/22
f 25/58/54 34/27/27 33/26/26
f 60/59/55 34/27/27 25/58/54
f 35/30/30 26/33/33 36/31/31
f 61/60/56 26/33/33 35/30/30
f 35/30/30 60/59/55 61/60/56
f 34/27/27 60/59/55 35/30/30
f 52/3/3 53/61/57 54/1/1
f 55/62/46 53/61/57 52/3/3
f 2/9/9 63/63/8 62/64/58
f 64/65/59 62/64/58 63/63/8
f 65/66/60 62/64/58 64/65/59
f 13/15/15 64/65/59 14/18/18
f 65/66/60 64/65/59 13/15/15
f 62/64/58 16/19/19 2/9/9
f 66/67/61 16/19/19 62/64/58
f 65/66/60 66/67/61 62/64/58
f 67/68/62 66/67/61 65/66/60
f 21/24/24 65/66/60 13/15/15
f 67/68/62 65/66/60 21/24/24
f 42/38/37 69/69/63 44/70/64
f 23/40/39 69/69/63 42/38/37
f 44/71/64 69/69/63 68/72/65
f 44/71/64 28/2/2 54/1/1
f 68/72/65 28/2/2 44/71/64
f 53/61/57 44/71/64 54/1/1
f 42/38/37 71/73/66 43/39/38
f 70/74/67 71/73/66 42/38/37
f 72/75/68 71/73/66 70/74/67
f 73/76/69 71/73/66 72/75/68
f 70/74/67 44/70/64 53/61/57
f 42/38/37 44/70/64 70/74/67
f 70/74/67 55/62/46 72/75/68
f 53/61/57 55/62/46 70/74/67
f 46/77/70 51/78/71 45/79/72
f 74/80/73 51/78/71 46/77/70
f 74/80/73 40/25/25 41/29/29
f 75/81/17 7/52/51 5/49/48
f 76/82/16 7/52/51 75/81/17
f 75/81/17 18/55/52 77/83/23
f 5/49/48 18/55/52 75/81/17
f 79/84/74 33/26/26 31/28/28
f 80/85/75 33/26/26 79/84/74
f 79/84/74 81/86/76 80/85/75
f 29/87/77 81/86/76 79/84/74
f 80/85/75 25/58/54 33/26/26
f 78/88/78 25/58/54 80/85/75
f 81/86/76 78/89/78 80/85/75
f 82/90/79 45/79/72 12/91/80
f 46/77/70 45/79/72 82/90/79
f 82/90/79 74/92/73 46/77/70
f 50/93/81 74/92/73 82/90/79
f 50/93/81 29/87/77 79/84/74
f 75/94/17 6/16/16 76/95/16
f 4/17/17 6/16/16 75/94/17
f 75/94/17 17/23/23 4/17/17
f 77/96/23 17/23/23 75/94/17
f 29/97/77 32/41/40 81/98/76
f 30/48/47 32/41/40 29/97/77
f 81/98/76 24/42/41 78/99/78
f 32/41/40 24/42/41 81/98/76
f 82/100/79 48/45/44 47/44/43
f 12/101/80 48/45/44 82/100/79
f 82/100/79 56/102/45 50/103/81
f 47/44/43 56/102/45 82/100/79
f 1/7/7 84/104/82 3/10/10
f 84/104/82 1/7/7 83/105/83
f 89/106/84 11/12/12 90/107/85
f 9/13/13 11/12/12 89/106/84
f 91/108/86 87/109/87 92/110/88
f 85/111/89 87/109/87 91/108/86
f 93/112/90 1/7/7 15/20/20
f 83/105/83 1/7/7 93/112/90
f 20/21/21 89/106/84 96/113/91
f 9/13/13 89/106/84 20/21/21
f 94/114/92 91/108/86 97/115/93
f 85/111/89 91/108/86 94/114/92
f 111/116/94 106/117/95 103/118/96
f 107/119/97 106/117/95 111/116/94
f 107/119/97 112/120/98 108/121/99
f 111/116/94 112/120/98 107/119/97
f 112/120/98 109/122/100 108/121/99
f 110/123/101 109/122/100 112/120/98
f 100/124/102 37/34/34 27/35/21
f 109/122/100 37/34/34 100/124/102
f 38/36/35 109/122/100 110/123/101
f 37/34/34 109/122/100 38/36/35
f 22/37/36 113/125/103 115/126/104
f 43/39/38 113/125/103 22/37/36
f 101/6/6 104/127/105 98/128/106
f 119/5/5 104/127/105 101/6/6
f 49/43/42 118/129/107 123/130/108
f 48/45/44 118/129/107 49/43/42
f 122/131/109 104/127/105 119/5/5
f 102/132/110 104/127/105 122/131/109
f 86/133/111 125/134/112 88/135/113
f 124/136/114 125/134/112 86/133/111
f 125/137/112 89/106/84 90/107/85
f 124/138/114 89/106/84 125/137/112
f 95/139/115 124/136/114 86/133/111
f 126/140/116 124/136/114 95/139/115
f 96/113/91 124/138/114 126/141/116
f 89/106/84 124/138/114 96/113/91
f 99/142/117 107/119/97 127/143/118
f 106/117/95 107/119/97 99/142/117
f 100/124/102 108/121/99 109/122/100
f 128/144/119 108/121/99 100/124/102
f 127/143/118 108/121/99 128/144/119
f 107/119/97 108/121/99 127/143/118
f 120/145/120 119/5/5 121/4/4
f 122/146/109 119/5/5 120/145/120
f 129/147/121 84/148/82 83/105/83
f 130/149/122 129/147/121 131/150/123
f 84/148/82 129/147/121 130/149/122
f 91/108/86 130/149/122 131/150/123
f 92/110/88 130/149/122 91/108/86
f 93/112/90 129/147/121 83/105/83
f 132/151/124 129/147/121 93/112/90
f 131/150/123 132/151/124 133/152/125
f 129/147/121 132/151/124 131/150/123
f 97/115/93 131/150/123 133/152/125
f 91/108/86 131/150/123 97/115/93
f 135/153/126 113/125/103 114/154/127
f 115/126/104 113/125/103 135/153/126
f 134/155/128 135/153/126 114/156/127
f 101/6/6 114/156/127 121/4/4
f 134/155/128 114/156/127 101/6/6
f 121/4/4 114/156/127 120/145/120
f 71/73/66 113/125/103 43/39/38
f 136/157/129 113/125/103 71/73/66
f 137/158/130 71/73/66 73/76/69
f 136/157/129 71/73/66 137/158/130
f 136/157/129 114/154/127 113/125/103
f 120/145/120 114/154/127 136/157/129
f 136/157/129 122/146/109 120/145/120
f 137/158/130 122/146/109 136/157/129
f 51/78/71 116/159/131 45/79/72
f 138/160/132 116/159/131 51/78/71
f 111/116/94 138/160/132 112/120/98
f 144/161/89 88/135/113 145/162/87
f 86/133/111 88/135/113 144/161/89
f 144/161/89 146/163/92 139/164/92
f 144/161/89 95/139/115 86/133/111
f 139/164/92 95/139/115 144/161/89
f 141/165/133 106/117/95 142/166/134
f 103/118/96 106/117/95 141/165/133
f 141/165/133 105/167/135 148/168/136
f 142/166/134 105/167/135 141/165/133
f 142/166/134 99/142/117 140/169/137
f 106/117/95 99/142/117 142/166/134
f 142/166/134 147/170/138 105/167/135
f 140/169/137 147/170/138 142/166/134
f 117/171/139 45/79/72 116/159/131
f 12/91/80 45/79/72 117/171/139
f 117/171/139 138/172/132 143/173/140
f 116/159/131 138/172/132 117/171/139
f 143/173/140 149/174/141 117/171/139
f 143/173/140 148/168/136 149/174/141
f 141/165/133 148/168/136 143/173/140
f 144/175/89 87/109/87 85/111/89
f 145/176/87 87/109/87 144/175/89
f 144/175/89 94/114/92 146/177/92
f 85/111/89 94/114/92 144/175/89
f 148/178/136 104/127/105 102/132/110
f 105/179/135 104/127/105 148/178/136
f 105/179/135 98/128/106 104/127/105
f 147/180/138 98/128/106 105/179/135
f 117/181/139 48/45/44 12/101/80
f 118/129/107 48/45/44 117/181/139
f 117/181/139 123/182/108 118/129/107
f 149/183/141 123/182/108 117/181/139
f 30/184/47 56/185/45 55/186/46
f 55/187/46 56/188/45 72/189/68
f 40/190/25 74/185/73 31/191/28
f 39/189/32 74/192/73 41/193/29
f 102/194/110 122/195/109 123/196/108
f 122/197/109 137/198/130 123/199/108
f 111/200/94 103/194/96 138/196/132
f 110/198/101 112/201/98 138/202/132
f 49/203/42 72/189/68 56/188/45
f 73/204/69 72/189/68 49/203/42
f 38/204/35 74/192/73 39/189/32
f 51/203/71 74/192/73 38/204/35
f 74/185/73 79/184/74 31/191/28
f 50/185/81 79/184/74 74/185/73
f 50/185/81 30/184/47 29/184/77
f 56/185/45 30/184/47 50/185/81
f 49/203/42 137/198/130 73/204/69
f 123/199/108 137/198/130 49/203/42
f 138/202/132 38/204/35 110/198/101
f 51/203/71 38/204/35 138/202/132
f 141/194/133 138/196/132 103/194/96
f 143/196/140 138/196/132 141/194/133
f 149/196/141 102/194/110 123/196/108
f 148/194/136 102/194/110 149/196/141
f 22/205/36 16/206/19 23/207/39
f 15/208/20 16/206/19 22/205/36
f 26/207/33 20/208/21 27/205/21
f 19/206/22 20/208/21 26/207/33
f 28/209/2 17/210/23 24/209/41
f 21/210/24 17/210/23 28/209/2
f 60/211/55 18/210/52 59/212/53
f 25/209/54 18/210/52 60/211/55
f 59/212/53 61/213/56 60/211/55
f 61/213/56 19/206/22 26/207/33
f 59/214/53 19/206/22 61/213/56
f 69/215/63 16/206/19 66/216/61
f 23/207/39 16/206/19 69/215/63
f 67/217/62 69/215/63 66/216/61
f 68/218/65 69/215/63 67/217/62
f 68/218/65 21/210/24 28/209/2
f 67/217/62 21/210/24 68/218/65
f 78/209/78 18/210/52 25/209/54
f 77/210/23 18/210/52 78/209/78
f 78/209/78 17/210/23 77/210/23
f 24/209/41 17/210/23 78/209/78
f 22/205/36 93/219/90 15/208/20
f 115/220/104 93/219/90 22/205/36
f 100/220/102 20/208/21 96/219/91
f 27/205/21 20/208/21 100/220/102
f 101/221/6 94/222/92 97/222/93
f 98/221/106 94/222/92 101/221/6
f 95/222/115 127/223/118 126/224/116
f 99/221/117 127/223/118 95/222/115
f 128/225/119 126/224/116 127/223/118
f 128/225/119 96/219/91 126/226/116
f 100/220/102 96/219/91 128/225/119
f 93/219/90 135/227/126 132/228/124
f 115/220/104 135/227/126 93/219/90
f 133/229/125 135/227/126 134/230/128
f 132/228/124 135/227/126 133/229/125
f 134/230/128 97/222/93 133/229/125
f 101/221/6 97/222/93 134/230/128
f 140/221/137 95/222/115 139/222/92
f 99/221/117 95/222/115 140/221/137
f 140/221/137 146/222/92 147/221/138
f 139/222/92 146/222/92 140/221/137
f 147/221/138 94/222/92 98/221/106
f 146/222/92 94/222/92 147/221/138
