# Blender v2.77 (sub 0) OBJ File: ''
# www.blender.org
mtllib car5.mtl
o body
v 0.480980 -0.004192 0.841625
v 0.500000 -0.100000 0.822201
v 0.482976 -0.000836 0.802229
v -0.480980 -0.004192 0.841625
v -0.482976 -0.000836 0.802229
v -0.500000 -0.100000 0.822201
v 0.000000 -0.280000 1.310335
v 0.323786 -0.420000 1.246971
v 0.317800 -0.280000 1.290335
v 0.000000 -0.420000 1.270335
v 0.317800 -0.280000 -0.710335
v -0.000000 -0.420000 -0.650335
v -0.000000 -0.280000 -0.710335
v 0.317800 -0.420000 -0.650335
v 0.480000 -0.280000 0.822201
v 0.400000 -0.420000 0.441200
v 0.480000 -0.280000 0.441200
v 0.400000 -0.420000 0.822201
v 0.317800 -0.160000 1.310335
v 0.000000 -0.160000 1.330335
v -0.000000 -0.160000 -0.710335
v 0.317800 -0.160000 -0.710335
v 0.500000 -0.160000 0.441200
v 0.500000 -0.160000 0.822201
v 0.451252 0.033094 -0.638935
v 0.482256 0.000200 -0.421000
v 0.466442 0.001456 -0.655665
v 0.466882 0.035576 -0.421000
v 0.430280 0.033094 -0.661527
v 0.445472 0.001456 -0.678257
v 0.317800 -0.000000 -0.709023
v 0.317800 0.034334 -0.695075
v 0.317800 -0.100000 -0.710335
v -0.000000 -0.000000 -0.710335
v -0.000000 -0.100000 -0.710335
v -0.000000 0.034334 -0.696387
v 0.000000 -0.090000 1.330335
v 0.317800 -0.056890 1.290579
v 0.000000 -0.056890 1.310579
v 0.317800 -0.090000 1.310335
v 0.482828 0.000200 0.441200
v 0.500000 -0.100000 0.441200
v 0.000000 0.400000 0.459600
v 0.297800 0.420000 0.421200
v 0.000000 0.420000 0.421200
v 0.321300 0.400000 0.449576
v 0.459540 0.032622 0.800043
v 0.467454 0.035576 0.441200
v 0.480000 -0.280000 -0.421000
v 0.397156 -0.420000 -0.645701
v 0.468384 -0.280000 -0.697651
v 0.400000 -0.420000 -0.421000
v 0.500000 -0.160000 -0.421000
v 0.488038 -0.160000 -0.700335
v 0.500000 -0.100000 -0.421000
v 0.497556 -0.100000 -0.686355
v 0.476018 -0.100000 -0.707993
v 0.457234 0.016500 0.841697
v 0.399586 -0.279506 1.277561
v 0.354172 -0.420000 1.215203
v 0.424472 -0.279506 1.251419
v 0.419224 -0.159622 1.295091
v 0.443984 -0.159622 1.269303
v 0.414104 -0.090112 1.290581
v 0.426500 -0.066294 1.265375
v 0.443544 -0.100546 1.268981
v 0.000000 0.016890 0.841957
v 0.317766 0.016800 0.841999
v 0.317800 0.034600 0.808599
v 0.000000 0.034570 0.808499
v 0.297800 0.420000 -0.401000
v -0.000000 0.400000 -0.434950
v -0.000000 0.420000 -0.401000
v 0.319962 0.400000 -0.428104
v 0.480000 -0.280000 -0.005000
v 0.400000 -0.420000 -0.005000
v 0.500000 -0.160000 -0.005000
v 0.467280 0.035576 -0.020000
v 0.482654 0.000200 -0.020000
v 0.482828 0.000200 0.010000
v 0.467454 0.035576 0.010000
v 0.500000 -0.100000 -0.005000
v 0.297800 0.420000 -0.005000
v -0.000000 0.420000 -0.005000
v 0.324800 0.400000 -0.005000
v -0.323786 -0.420000 1.246971
v -0.317800 -0.280000 1.290335
v -0.317800 -0.280000 -0.710335
v -0.317800 -0.420000 -0.650335
v -0.480000 -0.280000 0.822201
v -0.400000 -0.420000 0.441200
v -0.400000 -0.420000 0.822201
v -0.480000 -0.280000 0.441200
v -0.317800 -0.160000 1.310335
v -0.317800 -0.160000 -0.710335
v -0.500000 -0.160000 0.441200
v -0.500000 -0.160000 0.822201
v -0.451252 0.033094 -0.638935
v -0.482256 0.000200 -0.421000
v -0.466882 0.035576 -0.421000
v -0.466442 0.001456 -0.655665
v -0.430280 0.033094 -0.661527
v -0.445472 0.001456 -0.678257
v -0.317800 -0.000000 -0.709023
v -0.317800 0.034334 -0.695075
v -0.317800 -0.100000 -0.710335
v -0.317800 -0.056890 1.290579
v -0.317800 -0.090000 1.310335
v -0.482828 0.000200 0.441200
v -0.500000 -0.100000 0.441200
v -0.297800 0.420000 0.421200
v -0.321300 0.400000 0.449576
v -0.459540 0.032622 0.800043
v -0.467454 0.035576 0.441200
v -0.480000 -0.280000 -0.421000
v -0.397156 -0.420000 -0.645701
v -0.400000 -0.420000 -0.421000
v -0.468384 -0.280000 -0.697651
v -0.500000 -0.160000 -0.421000
v -0.488038 -0.160000 -0.700335
v -0.500000 -0.100000 -0.421000
v -0.497556 -0.100000 -0.686355
v -0.476018 -0.100000 -0.707993
v -0.457234 0.016500 0.841697
v -0.399586 -0.279506 1.277561
v -0.354172 -0.420000 1.215203
v -0.424472 -0.279506 1.251419
v -0.419224 -0.159622 1.295091
v -0.443984 -0.159622 1.269303
v -0.414104 -0.090112 1.290581
v -0.426500 -0.066294 1.265375
v -0.443544 -0.100546 1.268981
v -0.317766 0.016800 0.841999
v -0.317800 0.034600 0.808599
v -0.297800 0.420000 -0.401000
v -0.319962 0.400000 -0.428104
v -0.480000 -0.280000 -0.005000
v -0.400000 -0.420000 -0.005000
v -0.500000 -0.160000 0.010000
v -0.500000 -0.160000 -0.020000
v -0.467280 0.035576 -0.020000
v -0.482654 0.000200 -0.020000
v -0.482828 0.000200 0.010000
v -0.467454 0.035576 0.010000
v -0.500000 -0.100000 -0.020000
v -0.500000 -0.100000 0.010000
v -0.297800 0.420000 -0.005000
v -0.324800 0.400000 -0.020000
v -0.324800 0.400000 0.010000
vt 0.0682 0.9507
vt 0.0687 0.9479
vt 0.0682 0.9508
vt 0.0399 0.9507
vt 0.0398 0.9508
vt 0.0393 0.9479
vt 0.0540 0.9426
vt 0.0635 0.9384
vt 0.0634 0.9426
vt 0.0540 0.9384
vt 0.0634 0.9426
vt 0.0540 0.9384
vt 0.0540 0.9426
vt 0.0634 0.9384
vt 0.0681 0.9426
vt 0.0658 0.9384
vt 0.0681 0.9426
vt 0.0658 0.9384
vt 0.0634 0.9461
vt 0.0540 0.9461
vt 0.0540 0.9461
vt 0.0634 0.9461
vt 0.0687 0.9461
vt 0.0687 0.9461
vt 0.0673 0.9518
vt 0.0682 0.9508
vt 0.0677 0.9509
vt 0.0677 0.9518
vt 0.0667 0.9518
vt 0.0671 0.9509
vt 0.0634 0.9508
vt 0.0634 0.9518
vt 0.0634 0.9479
vt 0.0540 0.9508
vt 0.0540 0.9479
vt 0.0540 0.9518
vt 0.0540 0.9482
vt 0.0634 0.9491
vt 0.0540 0.9491
vt 0.0634 0.9482
vt 0.0682 0.9508
vt 0.0687 0.9479
vt 0.0540 0.9626
vt 0.0628 0.9632
vt 0.0540 0.9632
vt 0.0635 0.9626
vt 0.0675 0.9518
vt 0.0678 0.9518
vt 0.0681 0.9426
vt 0.0657 0.9384
vt 0.0678 0.9426
vt 0.0658 0.9384
vt 0.0687 0.9461
vt 0.0684 0.9461
vt 0.0687 0.9479
vt 0.0686 0.9479
vt 0.0680 0.9479
vt 0.0675 0.9513
vt 0.0658 0.9426
vt 0.0644 0.9384
vt 0.0665 0.9426
vt 0.0663 0.9461
vt 0.0671 0.9461
vt 0.0662 0.9482
vt 0.0666 0.9489
vt 0.0671 0.9478
vt 0.0540 0.9513
vt 0.0633 0.9513
vt 0.0634 0.9518
vt 0.0540 0.9518
vt 0.0628 0.9632
vt 0.0540 0.9626
vt 0.0540 0.9632
vt 0.0634 0.9626
vt 0.0681 0.9426
vt 0.0658 0.9384
vt 0.0687 0.9461
vt 0.0677 0.9518
vt 0.0682 0.9508
vt 0.0682 0.9508
vt 0.0678 0.9518
vt 0.0687 0.9479
vt 0.0628 0.9632
vt 0.0540 0.9632
vt 0.0636 0.9626
vt 0.0445 0.9384
vt 0.0446 0.9426
vt 0.0446 0.9426
vt 0.0446 0.9384
vt 0.0399 0.9426
vt 0.0422 0.9384
vt 0.0422 0.9384
vt 0.0399 0.9426
vt 0.0446 0.9461
vt 0.0446 0.9461
vt 0.0393 0.9461
vt 0.0393 0.9461
vt 0.0407 0.9518
vt 0.0398 0.9508
vt 0.0403 0.9518
vt 0.0403 0.9509
vt 0.0413 0.9518
vt 0.0409 0.9509
vt 0.0446 0.9508
vt 0.0446 0.9518
vt 0.0446 0.9479
vt 0.0446 0.9491
vt 0.0446 0.9482
vt 0.0398 0.9508
vt 0.0393 0.9479
vt 0.0452 0.9632
vt 0.0446 0.9626
vt 0.0405 0.9518
vt 0.0402 0.9518
vt 0.0399 0.9426
vt 0.0423 0.9384
vt 0.0422 0.9384
vt 0.0402 0.9426
vt 0.0393 0.9461
vt 0.0396 0.9461
vt 0.0393 0.9479
vt 0.0394 0.9479
vt 0.0400 0.9479
vt 0.0406 0.9513
vt 0.0422 0.9426
vt 0.0436 0.9384
vt 0.0415 0.9426
vt 0.0417 0.9461
vt 0.0409 0.9461
vt 0.0418 0.9482
vt 0.0415 0.9489
vt 0.0410 0.9478
vt 0.0446 0.9513
vt 0.0446 0.9518
vt 0.0452 0.9632
vt 0.0446 0.9626
vt 0.0399 0.9426
vt 0.0422 0.9384
vt 0.0393 0.9461
vt 0.0393 0.9461
vt 0.0403 0.9518
vt 0.0398 0.9508
vt 0.0398 0.9508
vt 0.0402 0.9518
vt 0.0393 0.9479
vt 0.0393 0.9479
vt 0.0452 0.9632
vt 0.0444 0.9626
vt 0.0444 0.9626
vt 0.4575 0.4721
vt 0.4559 0.4760
vt 0.4575 0.4721
vt 0.4573 0.4721
vt 0.4559 0.4721
vt 0.4573 0.4721
vt 0.4559 0.4760
vt 0.4574 0.4721
vt 0.4559 0.4721
vt 0.4558 0.4760
vt 0.4571 0.4721
vt 0.4476 0.4721
vt 0.4475 0.4721
vt 0.4491 0.4760
vt 0.4477 0.4721
vt 0.4491 0.4721
vt 0.4477 0.4721
vt 0.4476 0.4721
vt 0.4491 0.4760
vt 0.4491 0.4721
vt 0.4480 0.4721
vt 0.4492 0.4760
vt 0.4525 0.4760
vt 0.4525 0.4721
vt 0.4525 0.4721
vt 0.4525 0.4760
vt 0.4575 0.4721
vt 0.4559 0.4760
vt 0.4575 0.4721
vt 0.4476 0.4721
vt 0.4491 0.4760
vt 0.4491 0.4760
vt 0.4476 0.4721
vt 0.3503 0.7937
vt 0.3726 0.7895
vt 0.3726 0.7937
vt 0.3503 0.7895
vt 0.3726 0.7937
vt 0.3503 0.7895
vt 0.3503 0.7937
vt 0.3726 0.7895
vt 0.3854 0.7937
vt 0.3854 0.7895
vt 0.3854 0.7937
vt 0.3854 0.7895
vt 0.3852 0.7937
vt 0.3854 0.7895
vt 0.3852 0.7895
vt 0.3854 0.7937
vt 0.3837 0.7937
vt 0.3838 0.7895
vt 0.3797 0.7937
vt 0.3797 0.7895
vt 0.3815 0.7895
vt 0.3814 0.7937
vt 0.3854 0.7937
vt 0.3854 0.7895
vt 0.3281 0.7895
vt 0.3281 0.7937
vt 0.3281 0.7937
vt 0.3281 0.7895
vt 0.3153 0.7937
vt 0.3153 0.7895
vt 0.3153 0.7895
vt 0.3153 0.7937
vt 0.3153 0.7895
vt 0.3155 0.7937
vt 0.3154 0.7895
vt 0.3153 0.7937
vt 0.3170 0.7937
vt 0.3168 0.7895
vt 0.3210 0.7937
vt 0.3210 0.7895
vt 0.3192 0.7895
vt 0.3193 0.7937
vt 0.3153 0.7937
vt 0.3153 0.7895
vt 0.3153 0.7895
vt 0.3153 0.7937
vn 0.8626 0.4876 0.1350
vn 0.9938 0.0884 0.0678
vn 0.9091 0.4109 0.0690
vn -0.8626 0.4876 0.1350
vn -0.9091 0.4109 0.0690
vn -0.9938 0.0884 0.0678
vn -0.0000 -0.2220 0.9750
vn 0.2236 -0.7747 0.5915
vn 0.1058 -0.2270 0.9681
vn -0.0000 -0.7852 0.6192
vn 0.0392 -0.1978 -0.9795
vn -0.0000 -0.3939 -0.9191
vn -0.0000 -0.2011 -0.9796
vn 0.0164 -0.8301 -0.5574
vn 0.9417 -0.3312 0.0584
vn 0.8682 -0.4961 -0.0000
vn 0.9420 -0.3355 -0.0000
vn 0.5151 -0.8566 0.0305
vn 0.1140 -0.0752 0.9906
vn 0.0000 -0.0822 0.9966
vn -0.0000 -0.0000 -1.0000
vn 0.0245 -0.0101 -0.9996
vn 0.9966 -0.0825 -0.0000
vn 0.9946 -0.0825 0.0630
vn 0.7870 0.5185 -0.3342
vn 0.9567 0.2890 -0.0342
vn 0.8285 0.4443 -0.3409
vn 0.9219 0.3858 -0.0355
vn 0.4141 0.5641 -0.7143
vn 0.4110 0.4360 -0.8006
vn 0.1257 0.2017 -0.9713
vn 0.1306 0.4782 -0.8685
vn 0.0401 0.0359 -0.9985
vn -0.0000 0.1929 -0.9812
vn -0.0000 0.4848 -0.8746
vn 0.0000 0.2631 0.9648
vn 0.0999 0.8229 0.5594
vn -0.0000 0.8206 0.5715
vn 0.1265 0.2611 0.9570
vn 0.9572 0.2894 0.0055
vn 0.9964 0.0848 -0.0000
vn 0.0000 0.7980 0.6027
vn 0.2798 0.9343 0.2208
vn 0.0000 0.9713 0.2378
vn 0.5590 0.7336 0.3864
vn 0.5675 0.7533 0.3323
vn 0.9231 0.3844 0.0127
vn 0.9433 -0.3315 -0.0159
vn 0.4254 -0.7855 -0.4495
vn 0.6719 -0.3069 -0.6741
vn 0.8682 -0.4961 -0.0055
vn 0.9961 -0.0875 -0.0139
vn 0.7150 -0.1327 -0.6864
vn 0.9953 0.0957 -0.0151
vn 0.9161 0.1526 -0.3707
vn 0.3818 0.1623 -0.9099
vn 0.3816 0.8899 0.2498
vn 0.4568 -0.3055 0.8355
vn 0.5179 -0.8197 0.2446
vn 0.8512 -0.3416 0.3984
vn 0.4687 -0.0545 0.8817
vn 0.8912 -0.0814 0.4462
vn 0.3931 0.3247 0.8603
vn 0.5379 0.7383 0.4069
vn 0.8595 0.2046 0.4684
vn 0.0000 0.9482 0.3177
vn 0.0140 0.9470 0.3209
vn 0.0256 0.8005 0.5989
vn 0.0000 0.7977 0.6031
vn 0.2899 0.9287 -0.2313
vn -0.0000 0.7339 -0.6793
vn -0.0000 0.9648 -0.2631
vn 0.5527 0.6994 -0.4532
vn 0.9239 0.3827 -0.0044
vn 0.9580 0.2866 -0.0029
vn 0.9582 0.2859 -0.0026
vn 0.9243 0.3816 -0.0026
vn 0.9964 0.0852 -0.0003
vn 0.3151 0.9491 -0.0006
vn -0.0000 1.0000 -0.0000
vn 0.7942 0.6076 -0.0025
vn -0.2236 -0.7747 0.5915
vn -0.1058 -0.2270 0.9681
vn -0.0392 -0.1978 -0.9795
vn -0.0164 -0.8301 -0.5574
vn -0.9417 -0.3312 0.0584
vn -0.8682 -0.4961 0.0000
vn -0.5151 -0.8566 0.0305
vn -0.9420 -0.3355 0.0000
vn -0.1140 -0.0752 0.9906
vn -0.0245 -0.0101 -0.9996
vn -0.9966 -0.0825 0.0000
vn -0.9946 -0.0825 0.0630
vn -0.7870 0.5185 -0.3342
vn -0.9567 0.2890 -0.0342
vn -0.9219 0.3858 -0.0355
vn -0.8285 0.4443 -0.3409
vn -0.4141 0.5641 -0.7143
vn -0.4110 0.4360 -0.8006
vn -0.1257 0.2017 -0.9713
vn -0.1306 0.4782 -0.8685
vn -0.0401 0.0359 -0.9985
vn -0.0999 0.8229 0.5594
vn -0.1265 0.2611 0.9570
vn -0.9572 0.2894 0.0055
vn -0.9964 0.0848 0.0000
vn -0.2798 0.9343 0.2208
vn -0.5590 0.7336 0.3865
vn -0.5675 0.7533 0.3323
vn -0.9231 0.3844 0.0127
vn -0.9433 -0.3315 -0.0159
vn -0.4254 -0.7855 -0.4495
vn -0.8682 -0.4961 -0.0055
vn -0.6719 -0.3069 -0.6741
vn -0.9961 -0.0875 -0.0139
vn -0.7150 -0.1327 -0.6864
vn -0.9953 0.0957 -0.0151
vn -0.9161 0.1526 -0.3707
vn -0.3818 0.1623 -0.9099
vn -0.3816 0.8899 0.2498
vn -0.4568 -0.3055 0.8355
vn -0.5179 -0.8197 0.2446
vn -0.8512 -0.3416 0.3984
vn -0.4687 -0.0545 0.8817
vn -0.8912 -0.0814 0.4462
vn -0.3931 0.3247 0.8603
vn -0.5379 0.7383 0.4069
vn -0.8595 0.2046 0.4684
vn -0.0140 0.9470 0.3209
vn -0.0256 0.8005 0.5989
vn -0.2899 0.9287 -0.2313
vn -0.5527 0.6994 -0.4532
vn -0.9239 0.3826 -0.0044
vn -0.9581 0.2865 -0.0028
vn -0.9583 0.2857 -0.0028
vn -0.9244 0.3815 -0.0026
vn -0.9963 0.0856 0.0000
vn -0.9964 0.0851 -0.0003
vn -0.3143 0.9493 -0.0004
vn -0.7940 0.6079 -0.0053
vn -0.7934 0.6087 0.0025
usemtl None
s 1
f 1/1/1 2/2/2 3/3/3
f 4/4/4 5/5/5 6/6/6
f 7/7/7 8/8/8 9/9/9
f 8/8/8 7/7/7 10/10/10
f 11/11/11 12/12/12 13/13/13
f 14/14/14 12/12/12 11/11/11
f 15/15/15 16/16/16 17/17/17
f 18/18/18 16/16/16 15/15/15
f 19/19/19 7/7/7 9/9/9
f 20/20/20 7/7/7 19/19/19
f 21/21/21 11/11/11 13/13/13
f 22/22/22 11/11/11 21/21/21
f 23/23/23 15/15/15 17/17/17
f 24/24/24 15/15/15 23/23/23
f 25/25/25 26/26/26 27/27/27
f 28/28/28 26/26/26 25/25/25
f 29/29/29 27/27/27 30/30/30
f 25/25/25 27/27/27 29/29/29
f 31/31/31 29/29/29 30/30/30
f 32/32/32 29/29/29 31/31/31
f 33/33/33 34/34/34 31/31/31
f 35/35/21 34/34/34 33/33/33
f 36/36/35 31/31/31 34/34/34
f 32/32/32 31/31/31 36/36/35
f 37/37/36 38/38/37 39/39/38
f 40/40/39 38/38/37 37/37/36
f 2/2/2 41/41/40 3/3/3
f 42/42/41 41/41/40 2/2/2
f 43/43/42 44/44/43 45/45/44
f 46/46/45 44/44/43 43/43/42
f 41/41/40 47/47/46 3/3/3
f 48/48/47 47/47/46 41/41/40
f 49/49/48 50/50/49 51/51/50
f 52/52/51 50/50/49 49/49/48
f 11/11/11 50/50/49 14/14/14
f 51/51/50 50/50/49 11/11/11
f 51/51/50 53/53/52 49/49/48
f 54/54/53 53/53/52 51/51/50
f 22/22/22 51/51/50 11/11/11
f 54/54/53 51/51/50 22/22/22
f 55/55/54 27/27/27 26/26/26
f 56/56/55 27/27/27 55/55/54
f 30/30/30 33/33/33 31/31/31
f 57/57/56 33/33/33 30/30/30
f 30/30/30 56/56/55 57/57/56
f 27/27/27 56/56/55 30/30/30
f 3/3/3 58/58/57 1/1/1
f 47/47/46 58/58/57 3/3/3
f 9/9/9 8/8/8 59/59/58
f 60/60/59 59/59/58 8/8/8
f 61/61/60 59/59/58 60/60/59
f 15/15/15 60/60/59 18/18/18
f 61/61/60 60/60/59 15/15/15
f 59/59/58 19/19/19 9/9/9
f 62/62/61 19/19/19 59/59/58
f 61/61/60 62/62/61 59/59/58
f 63/63/62 62/62/61 61/61/60
f 24/24/24 61/61/60 15/15/15
f 63/63/62 61/61/60 24/24/24
f 38/38/37 64/64/63 65/65/64
f 40/40/39 64/64/63 38/38/37
f 65/65/64 64/64/63 66/66/65
f 65/65/64 2/2/2 1/1/1
f 66/66/65 2/2/2 65/65/64
f 58/58/57 65/65/64 1/1/1
f 38/38/37 67/67/66 39/39/38
f 68/68/67 67/67/66 38/38/37
f 69/69/68 67/67/66 68/68/67
f 70/70/69 67/67/66 69/69/68
f 68/68/67 65/65/64 58/58/57
f 38/38/37 65/65/64 68/68/67
f 68/68/67 47/47/46 69/69/68
f 58/58/57 47/47/46 68/68/67
f 71/71/70 72/72/71 73/73/72
f 74/74/73 72/72/71 71/71/70
f 74/74/73 25/25/25 29/29/29
f 75/75/17 52/52/51 49/49/48
f 76/76/16 52/52/51 75/75/17
f 75/75/17 53/53/52 77/77/23
f 49/49/48 53/53/52 75/75/17
f 78/78/74 26/26/26 28/28/28
f 79/79/75 26/26/26 78/78/74
f 78/78/74 80/80/76 79/79/75
f 81/81/77 80/80/76 78/78/74
f 79/79/75 55/55/54 26/26/26
f 82/82/78 55/55/54 79/79/75
f 80/80/76 82/82/78 79/79/75
f 83/83/79 73/73/72 84/84/80
f 71/71/70 73/73/72 83/83/79
f 83/83/79 74/74/73 71/71/70
f 85/85/81 74/74/73 83/83/79
f 85/85/81 81/81/77 78/78/74
f 75/75/17 16/16/16 76/76/16
f 17/17/17 16/16/16 75/75/17
f 75/75/17 23/23/23 17/17/17
f 77/77/23 23/23/23 75/75/17
f 81/81/77 41/41/40 80/80/76
f 48/48/47 41/41/40 81/81/77
f 80/80/76 42/42/41 82/82/78
f 41/41/40 42/42/41 80/80/76
f 83/83/79 45/45/44 44/44/43
f 84/84/80 45/45/44 83/83/79
f 83/83/79 46/46/45 85/85/81
f 44/44/43 46/46/45 83/83/79
f 7/7/7 86/86/82 10/10/10
f 86/86/82 7/7/7 87/87/83
f 88/88/84 12/12/12 89/89/85
f 13/13/13 12/12/12 88/88/84
f 90/90/86 91/91/87 92/92/88
f 93/93/89 91/91/87 90/90/86
f 94/94/90 7/7/7 20/20/20
f 87/87/83 7/7/7 94/94/90
f 21/21/21 88/88/84 95/95/91
f 13/13/13 88/88/84 21/21/21
f 96/96/92 90/90/86 97/97/93
f 93/93/89 90/90/86 96/96/92
f 98/98/94 99/99/95 100/100/96
f 101/101/97 99/99/95 98/98/94
f 101/101/97 102/102/98 103/103/99
f 98/98/94 102/102/98 101/101/97
f 102/102/98 104/104/100 103/103/99
f 105/105/101 104/104/100 102/102/98
f 106/106/102 34/34/34 35/35/21
f 104/104/100 34/34/34 106/106/102
f 36/36/35 104/104/100 105/105/101
f 34/34/34 104/104/100 36/36/35
f 37/37/36 107/107/103 108/108/104
f 39/39/38 107/107/103 37/37/36
f 6/6/6 109/109/105 110/110/106
f 5/5/5 109/109/105 6/6/6
f 43/43/42 111/111/107 112/112/108
f 45/45/44 111/111/107 43/43/42
f 113/113/109 109/109/105 5/5/5
f 114/114/110 109/109/105 113/113/109
f 115/115/111 116/116/112 117/117/113
f 118/118/114 116/116/112 115/115/111
f 116/116/112 88/88/84 89/89/85
f 118/118/114 88/88/84 116/116/112
f 119/119/115 118/118/114 115/115/111
f 120/120/116 118/118/114 119/119/115
f 95/95/91 118/118/114 120/120/116
f 88/88/84 118/118/114 95/95/91
f 121/121/117 101/101/97 122/122/118
f 99/99/95 101/101/97 121/121/117
f 106/106/102 103/103/99 104/104/100
f 123/123/119 103/103/99 106/106/102
f 122/122/118 103/103/99 123/123/119
f 101/101/97 103/103/99 122/122/118
f 124/124/120 5/5/5 4/4/4
f 113/113/109 5/5/5 124/124/120
f 125/125/121 86/86/82 87/87/83
f 126/126/122 125/125/121 127/127/123
f 86/86/82 125/125/121 126/126/122
f 90/90/86 126/126/122 127/127/123
f 92/92/88 126/126/122 90/90/86
f 94/94/90 125/125/121 87/87/83
f 128/128/124 125/125/121 94/94/90
f 127/127/123 128/128/124 129/129/125
f 125/125/121 128/128/124 127/127/123
f 97/97/93 127/127/123 129/129/125
f 90/90/86 127/127/123 97/97/93
f 130/130/126 107/107/103 131/131/127
f 108/108/104 107/107/103 130/130/126
f 132/132/128 130/130/126 131/131/127
f 6/6/6 131/131/127 4/4/4
f 132/132/128 131/131/127 6/6/6
f 4/4/4 131/131/127 124/124/120
f 67/67/66 107/107/103 39/39/38
f 133/133/129 107/107/103 67/67/66
f 134/134/130 67/67/66 70/70/69
f 133/133/129 67/67/66 134/134/130
f 133/133/129 131/131/127 107/107/103
f 124/124/120 131/131/127 133/133/129
f 133/133/129 113/113/109 124/124/120
f 134/134/130 113/113/109 133/133/129
f 72/72/71 135/135/131 73/73/72
f 136/136/132 135/135/131 72/72/71
f 98/98/94 136/136/132 102/102/98
f 137/137/89 117/117/113 138/138/87
f 115/115/111 117/117/113 137/137/89
f 137/137/89 139/139/92 140/140/92
f 137/137/89 119/119/115 115/115/111
f 140/140/92 119/119/115 137/137/89
f 141/141/133 99/99/95 142/142/134
f 100/100/96 99/99/95 141/141/133
f 141/141/133 143/143/135 144/144/136
f 142/142/134 143/143/135 141/141/133
f 142/142/134 121/121/117 145/145/137
f 99/99/95 121/121/117 142/142/134
f 142/142/134 146/146/138 143/143/135
f 145/145/137 146/146/138 142/142/134
f 147/147/139 73/73/72 135/135/131
f 84/84/80 73/73/72 147/147/139
f 147/147/139 136/136/132 148/148/140
f 135/135/131 136/136/132 147/147/139
f 148/148/140 149/149/141 147/147/139
f 148/148/140 144/144/136 149/149/141
f 141/141/133 144/144/136 148/148/140
f 137/137/89 91/91/87 93/93/89
f 138/138/87 91/91/87 137/137/89
f 137/137/89 96/96/92 139/139/92
f 93/93/89 96/96/92 137/137/89
f 144/144/136 109/109/105 114/114/110
f 143/143/135 109/109/105 144/144/136
f 143/143/135 110/110/106 109/109/105
f 146/146/138 110/110/106 143/143/135
f 147/147/139 45/45/44 84/84/80
f 111/111/107 45/45/44 147/147/139
f 147/147/139 112/112/108 111/111/107
f 149/149/141 112/112/108 147/147/139
f 14/14/14 116/116/112 89/89/85
f 116/116/112 14/14/14 50/50/49
f 126/126/122 92/92/88 86/86/82
f 8/8/8 18/18/18 60/60/59
f 8/8/8 10/10/10 86/86/82
f 18/18/18 116/116/112 50/50/49
f 18/18/18 92/92/88 116/116/112
f 8/8/8 92/92/88 18/18/18
f 8/8/8 86/86/82 92/92/88
f 48/150/47 46/151/45 47/152/46
f 47/153/46 46/151/45 69/154/68
f 25/155/25 74/156/73 28/157/28
f 32/158/32 74/159/73 29/160/29
f 114/161/110 113/162/109 112/163/108
f 113/164/109 134/165/130 112/163/108
f 98/166/94 100/167/96 136/168/132
f 105/169/101 102/170/98 136/171/132
f 43/172/42 69/154/68 46/151/45
f 70/173/69 69/154/68 43/172/42
f 36/174/35 74/159/73 32/158/32
f 72/175/71 74/159/73 36/174/35
f 74/156/73 78/176/74 28/157/28
f 85/177/81 78/176/74 74/156/73
f 85/177/81 48/150/47 81/178/77
f 46/151/45 48/150/47 85/177/81
f 43/172/42 134/165/130 70/173/69
f 112/163/108 134/165/130 43/172/42
f 136/171/132 36/174/35 105/169/101
f 72/175/71 36/174/35 136/171/132
f 141/179/133 136/168/132 100/167/96
f 148/180/140 136/168/132 141/179/133
f 149/181/141 114/161/110 112/163/108
f 144/182/136 114/161/110 149/181/141
f 37/183/36 19/184/19 40/185/39
f 20/186/20 19/184/19 37/183/36
f 33/187/33 21/188/21 35/189/21
f 22/190/22 21/188/21 33/187/33
f 2/191/2 23/192/23 42/193/41
f 24/194/24 23/192/23 2/191/2
f 56/195/55 53/196/52 54/197/53
f 55/198/54 53/196/52 56/195/55
f 54/197/53 57/199/56 56/195/55
f 57/199/56 22/190/22 33/187/33
f 54/200/53 22/190/22 57/199/56
f 64/201/63 19/184/19 62/202/61
f 40/185/39 19/184/19 64/201/63
f 63/203/62 64/201/63 62/202/61
f 66/204/65 64/201/63 63/203/62
f 66/204/65 24/194/24 2/191/2
f 63/203/62 24/194/24 66/204/65
f 82/205/78 53/196/52 55/198/54
f 77/206/23 53/196/52 82/205/78
f 82/205/78 23/192/23 77/206/23
f 42/193/41 23/192/23 82/205/78
f 37/183/36 94/207/90 20/186/20
f 108/208/104 94/207/90 37/183/36
f 106/209/102 21/188/21 95/210/91
f 35/189/21 21/188/21 106/209/102
f 6/211/6 96/212/92 97/213/93
f 110/214/106 96/212/92 6/211/6
f 119/215/115 122/216/118 120/217/116
f 121/218/117 122/216/118 119/215/115
f 123/219/119 120/217/116 122/216/118
f 123/219/119 95/210/91 120/220/116
f 106/209/102 95/210/91 123/219/119
f 94/207/90 130/221/126 128/222/124
f 108/208/104 130/221/126 94/207/90
f 129/223/125 130/221/126 132/224/128
f 128/222/124 130/221/126 129/223/125
f 132/224/128 97/213/93 129/223/125
f 6/211/6 97/213/93 132/224/128
f 145/225/137 119/215/115 140/226/92
f 121/218/117 119/215/115 145/225/137
f 145/225/137 139/227/92 146/228/138
f 140/226/92 139/227/92 145/225/137
f 146/228/138 96/212/92 110/214/106
f 139/227/92 96/212/92 146/228/138
